<svg width="200" height="200" viewBox="0 0 200 200" fill="none" xmlns="http://www.w3.org/2000/svg">
<rect width="200" height="200" rx="50" fill="#FF69F9"/>
<path d="M144.56 52.4C145.499 52.4 146.309 52.7413 146.992 53.424C147.675 54.1067 148.016 54.9173 148.016 55.856V76.464C148.016 77.4027 147.675 78.2133 146.992 78.896C146.309 79.5787 145.499 79.92 144.56 79.92H117.04V138.544C117.04 139.483 116.699 140.293 116.016 140.976C115.333 141.659 114.523 142 113.584 142H87.216C86.2773 142 85.4667 141.659 84.784 140.976C84.1013 140.293 83.76 139.483 83.76 138.544V79.92H56.24C55.3013 79.92 54.4907 79.5787 53.808 78.896C53.1253 78.2133 52.784 77.4027 52.784 76.464V55.856C52.784 54.9173 53.1253 54.1067 53.808 53.424C54.4907 52.7413 55.3013 52.4 56.24 52.4H144.56Z" fill="#E9F8F9"/>
</svg>
